<svg id="icons8-thumb_up" xmlns="http://www.w3.org/2000/svg" width="17" height="15" viewBox="0 0 22 20">
  <defs>
    <style>
      .cls-1 {
        fill: #0078ff;
      }
    </style>
  </defs>
  <path id="形状" class="cls-1" d="M16.992,20H8a1.967,1.967,0,0,1-1-.277A1.968,1.968,0,0,1,6,20H0V8H6a1.984,1.984,0,0,1,.584-1.4L13.168,0l.865.853a1.987,1.987,0,0,1,.554,1.85L13.649,7H20a2,2,0,0,1,2,2v2a1.988,1.988,0,0,1-.162.789l-3.008,7A2,2,0,0,1,16.992,20ZM12.326,3.674,8,8.008V18h8.992L20,11V9H11.168L11.7,6.575ZM2,10v8H6V10Z"/>
</svg>
