<svg xmlns="http://www.w3.org/2000/svg" width="13" height="15" viewBox="0 0 16.925 20">
  <defs>
    <style>
      .cls-1 {
        fill: #0078ff;
      }
    </style>
  </defs>
  <g id="icons8-hand" transform="translate(-0.074)">
    <path id="形状" class="cls-1" d="M13.926,20H7.168a3.02,3.02,0,0,1-2.12-.878l-.035-.035L0,12.939l1.347-1.416a2.443,2.443,0,0,1,1.761-.75A2.4,2.4,0,0,1,4.131,11l.076.035,1.719,1.186V1h2V7l1,.166V0h2V7.5l1,.167V1h2V8l1,.166V3h2V17A3,3,0,0,1,13.926,20ZM3.088,12.779a.4.4,0,0,0-.293.125l-.13.137,3.809,4.672A.992.992,0,0,0,7.168,18h6.758a.989.989,0,0,0,1-1V10.2l-7-1.168v7L3.268,12.816A.472.472,0,0,0,3.088,12.779Z" transform="translate(0.074)"/>
  </g>
</svg>
