<svg id="icons8-security_checked" xmlns="http://www.w3.org/2000/svg" width="14" height="16" viewBox="0 0 18 22">
  <defs>
    <style>
      .cls-1 {
        fill: #0078ff;
      }
    </style>
  </defs>
  <path id="形状" class="cls-1" d="M9,22H9a11.883,11.883,0,0,1-5.46-3.256A12.188,12.188,0,0,1,0,10V4L9,0l9,4v6a12.188,12.188,0,0,1-3.539,8.743A11.883,11.883,0,0,1,9,22ZM9,2.19H9L2,5.3V10a10.3,10.3,0,0,0,2.67,7.013A10.424,10.424,0,0,0,9,19.938a10.424,10.424,0,0,0,4.331-2.925A10.3,10.3,0,0,0,16,10V5.3L9,2.19ZM8,15.414H8L3.814,11.228,5.228,9.815,8,12.586,13.793,6.8l1.412,1.412L8,15.414Z"/>
</svg>
