<svg id="icons8-web_application_firewall" xmlns="http://www.w3.org/2000/svg" width="16" height="16" viewBox="0 0 21 21">
  <defs>
    <style>
      .cls-1 {
        fill: #0078ff;
      }
    </style>
  </defs>
  <path id="形状" class="cls-1" d="M16.5,21h0A6.2,6.2,0,0,1,12,15V12l4.5-2L21,12v3a6.2,6.2,0,0,1-4.5,6Zm-5.951-3H2a2,2,0,0,1-2-2V2A2,2,0,0,1,2,0H16a2,2,0,0,1,2,2V8H2v8h8.059a8.159,8.159,0,0,0,.188,1.045,7.883,7.883,0,0,0,.3.954ZM2,2V6H16V2ZM14,5H10V3h4V5ZM7,5A1,1,0,1,1,8,4,1,1,0,0,1,7,5ZM4,5A1,1,0,1,1,5,4,1,1,0,0,1,4,5Z"/>
</svg>
