<svg xmlns="http://www.w3.org/2000/svg" width="15" height="15" viewBox="0 0 19.656 20">
  <defs>
    <style>
      .cls-1 {
        fill: #0078ff;
      }
    </style>
  </defs>
  <g id="icons8-settings" transform="translate(-0.172)">
    <path id="形状" class="cls-1" d="M12.162,20H7.494L7,17.476a7.94,7.94,0,0,1-2.246-1.289l-2.422.834L0,12.981l1.941-1.687A8.161,8.161,0,0,1,1.828,10a7.979,7.979,0,0,1,.113-1.291L0,7.022,2.336,2.978l2.425.836A7.918,7.918,0,0,1,7,2.524L7.494,0h4.667l.491,2.524A7.939,7.939,0,0,1,14.9,3.812l2.422-.834,2.336,4.041-1.941,1.69A8,8,0,0,1,17.828,10a8,8,0,0,1-.113,1.292l1.939,1.689L17.32,17.022,14.9,16.186a7.933,7.933,0,0,1-2.245,1.291L12.162,20Zm-7-6.066h0l.863.706a5.931,5.931,0,0,0,1.684.965l1.043.4.388,2h1.37l.389-2,1.042-.4a5.913,5.913,0,0,0,1.684-.965l.865-.708,1.921.661.685-1.187L15.563,12.07l.177-1.1A6.037,6.037,0,0,0,15.828,10a6.015,6.015,0,0,0-.088-.97l-.175-1.1L17.1,6.592l-.686-1.185-1.922.66-.863-.707a5.94,5.94,0,0,0-1.683-.965L10.9,4l-.389-2H9.142L8.754,4l-1.043.4a5.95,5.95,0,0,0-1.684.965l-.863.709L3.242,5.406,2.557,6.593,4.094,7.93l-.178,1.1a6.016,6.016,0,0,0-.088.97,6.19,6.19,0,0,0,.088.973l.178,1.1L2.557,13.408l.685,1.185,1.922-.66ZM9.828,14a4,4,0,1,1,4-4A4,4,0,0,1,9.828,14Zm0-6a2,2,0,1,0,2,2A2,2,0,0,0,9.828,8Z" transform="translate(0.172)"/>
  </g>
</svg>
