<svg xmlns="http://www.w3.org/2000/svg" width="16" height="18" viewBox="0 0 32.163 35.78">
  <path id="icons-leaf" style="fill: #8A9199" d="M27.371,1.9l-1.019.209a53.561,53.561,0,0,0-8.484,2.694C13.272,6.7,7.847,9.631,4.7,14.339l-.028.038-.024.038A12.29,12.29,0,0,0,3,20.949a11.533,11.533,0,0,0,3.675,8.282,12.782,12.782,0,0,0,2.858,2.056,23.9,23.9,0,0,1-5.41,3.082L5.45,37.684c9.605-3.842,16.573-13.221,18.93-22.692l-3.469-.862a31.983,31.983,0,0,1-8.345,14.539,8.658,8.658,0,0,1-3.413-2.014,7.937,7.937,0,0,1-2.579-5.706,8.367,8.367,0,0,1,1.138-4.666c2.449-3.633,7.257-6.422,11.514-8.17a38.059,38.059,0,0,1,6.792-2.16,25.926,25.926,0,0,1,5.57,14.689c.054,4.017-.985,6.924-2.53,8.83a7.847,7.847,0,0,1-5.968,2.973,5.7,5.7,0,0,1-4.038-1.319L16.873,33.96a10.1,10.1,0,0,0,6.237,2.066h.1a11.6,11.6,0,0,0,8.624-4.3C34,29.045,35.223,25.259,35.161,20.6a28.8,28.8,0,0,0-7.1-17.914Z" transform="translate(-3 -1.904)"/>
</svg>
