<svg xmlns="http://www.w3.org/2000/svg" width="18" height="14" viewBox="0 0 35.78 27.651">
  <path id="icons-speed" style="fill: #8A9199" d="M18.89,3A17.895,17.895,0,0,0,3.4,29.838a1.627,1.627,0,0,0,1.407.813l28.175,0a1.627,1.627,0,0,0,1.407-.813A17.892,17.892,0,0,0,18.89,3Zm0,3.253A14.612,14.612,0,0,1,33.527,20.89,14.433,14.433,0,0,1,31.91,27.4H30.233a1.626,1.626,0,1,0-3.17,0l-16.527,0a1.626,1.626,0,1,0-2.808,0H5.873a14.436,14.436,0,0,1-1.62-6.509A14.612,14.612,0,0,1,18.89,6.253Zm0,1.626a1.626,1.626,0,1,0,1.626,1.626A1.626,1.626,0,0,0,18.89,7.879ZM13.2,9.505a1.626,1.626,0,1,0,1.626,1.626A1.626,1.626,0,0,0,13.2,9.505Zm11.283,0a1.626,1.626,0,1,0,1.626,1.626A1.626,1.626,0,0,0,24.48,9.505Zm4.234,3.9-8.189,4.679a3.251,3.251,0,1,0,1.617,2.824l8.186-4.679Zm-19.583.168A1.626,1.626,0,1,0,10.758,15.2,1.626,1.626,0,0,0,9.132,13.571ZM7.505,19.263A1.626,1.626,0,1,0,9.132,20.89,1.626,1.626,0,0,0,7.505,19.263Zm22.769,0A1.626,1.626,0,1,0,31.9,20.89,1.626,1.626,0,0,0,30.274,19.263Z" transform="translate(-1 -3)"/>
</svg>
