<svg xmlns="http://www.w3.org/2000/svg" width="17" height="18" viewBox="0 0 33.644 35.78">
  <path id="icons-hand" style="fill: #8A9199" d="M20.817,2V14.82l-1.988-.3V3.789H14.853V23.863l-3.416-2.121-.151-.063a5.242,5.242,0,0,0-5.532.936L3.074,25.148l9.962,11,.07.063a6.319,6.319,0,0,0,4.216,1.572H30.755c3.27,0,5.963-2.424,5.963-5.367V7.367H32.743v9.242l-1.988-.3V3.789H26.78V15.714l-1.988-.3V2ZM18.829,18.15l13.914,2.089V32.413A1.866,1.866,0,0,1,30.755,34.2H17.322a2.1,2.1,0,0,1-1.382-.514L8.37,25.33l.26-.245a.894.894,0,0,1,.94-.157l9.259,5.748Z" transform="translate(-3.074 -2)"/>
</svg>
