<svg xmlns="http://www.w3.org/2000/svg" width="27" height="30" viewBox="0 0 54.824 60">
  <defs>
    <style>
      .cls-1 {
        fill: #767c8c;
      }
    </style>
  </defs>
  <path id="icons8-bug" class="cls-1" d="M23.452,2.3,19.1,6.56l4.242,4.331a9.053,9.053,0,0,0-2.064,5.723c0,.164.039.261.048.41a9.152,9.152,0,0,0-4,2.29,30.316,30.316,0,0,0-2.9,3.391H3V28.8h7.965a24.718,24.718,0,0,0-1.654,6.092H3V40.98H9.234a31.387,31.387,0,0,0,1.071,6.092H3v6.092h9.982a20.566,20.566,0,0,0,1.344,1.9c3.6,4.5,9.233,7.234,16.086,7.234S42.9,59.57,46.5,55.067a20.566,20.566,0,0,0,1.344-1.9h9.982V47.072H50.519A31.158,31.158,0,0,0,51.6,40.98h6.228V34.889H51.489A25.321,25.321,0,0,0,49.811,28.8h8.013V22.705H46.379A29.1,29.1,0,0,0,43.5,19.314a9.152,9.152,0,0,0-4-2.29c.008-.149.048-.247.048-.41a9.053,9.053,0,0,0-2.064-5.723L41.727,6.56,37.372,2.3,32.137,7.649a8.712,8.712,0,0,0-3.45,0Zm.482,20.4H36.891a3.259,3.259,0,0,1,2.308.916v.006c3.883,3.872,6.443,9.722,6.443,14.307,0,5.584-1.414,10.214-3.9,13.325a12.646,12.646,0,0,1-8.281,4.706V28.8H27.366V55.965a12.646,12.646,0,0,1-8.281-4.706c-2.489-3.111-3.9-7.741-3.9-13.325,0-5.13,2.484-10.36,6.443-14.307v-.006A3.259,3.259,0,0,1,23.934,22.705Z" transform="translate(-3 -2.301)"/>
</svg>
