<svg xmlns="http://www.w3.org/2000/svg" width="25" height="30" viewBox="0 0 49.091 60">
  <path id="icons8-user_shield" style="fill: #767C8C" d="M27.545,1,3,11.909V28.273C3,49.627,20.561,59.6,27.545,61c6.985-1.4,24.545-11.373,24.545-32.727V11.909Zm0,5.971,19.091,8.485V28.273A28.183,28.183,0,0,1,43.653,41.11C39.4,37.9,31.7,36.455,27.545,36.455S15.691,37.9,11.438,41.11A28.183,28.183,0,0,1,8.455,28.273V15.457Zm0,6.983a8.864,8.864,0,1,0,8.864,8.864A8.874,8.874,0,0,0,27.545,13.955Zm0,5.455a3.409,3.409,0,1,1-3.409,3.409A3.414,3.414,0,0,1,27.545,19.409Zm0,22.5a23.908,23.908,0,0,1,13.386,3.585,29.055,29.055,0,0,1-13.386,9.881,29.055,29.055,0,0,1-13.386-9.881A23.908,23.908,0,0,1,27.545,41.909Z" transform="translate(-3 -1)"/>
</svg>
