<svg xmlns="http://www.w3.org/2000/svg" width="28" height="30" viewBox="0 0 56.419 60">
  <defs>
    <style>
      .cls-1 {
        fill: #8a9199;
      }
    </style>
  </defs>
  <path id="icons8-hand" class="cls-1" d="M32.827,2V23.5L29.493,23V5H22.827V38.662L17.1,35.105,16.844,35a8.79,8.79,0,0,0-9.277,1.57L3.074,40.818,19.78,59.258l.117.105A10.6,10.6,0,0,0,26.967,62H49.493c5.483,0,10-4.065,10-9V11H52.827V26.5L49.493,26V5H42.827V25l-3.333-.5V2ZM29.493,29.082l23.333,3.5V53a3.129,3.129,0,0,1-3.333,3H26.967a3.514,3.514,0,0,1-2.318-.861l-12.7-14.016.436-.41a1.5,1.5,0,0,1,1.576-.264l15.527,9.639Z" transform="translate(-3.074 -2)"/>
</svg>
