<?xml version="1.0" encoding="UTF-8"?><svg width="30" height="30" viewBox="0 0 48 48" fill="none" xmlns="http://www.w3.org/2000/svg"><rect width="48" height="48" fill="white" fill-opacity="0.01"/><rect x="9" y="18" width="30" height="24" rx="2" fill="none" stroke="#767C8C" stroke-width="3"/><circle cx="17" cy="26" r="2" fill="#767C8C"/><circle cx="31" cy="26" r="2" fill="#767C8C"/><path d="M20 32C18.8954 32 18 32.8954 18 34C18 35.1046 18.8954 36 20 36V32ZM28 36C29.1046 36 30 35.1046 30 34C30 32.8954 29.1046 32 28 32V36ZM20 36H28V32H20V36Z" fill="#767C8C"/><path d="M24 10V18" stroke="#767C8C" stroke-width="3" stroke-linecap="round" stroke-linejoin="round"/><path d="M4 26V34" stroke="#767C8C" stroke-width="3" stroke-linecap="round" stroke-linejoin="round"/><path d="M44 26V34" stroke="#767C8C" stroke-width="3" stroke-linecap="round" stroke-linejoin="round"/><circle cx="24" cy="8" r="2" stroke="#767C8C" stroke-width="3"/></svg>