<svg xmlns="http://www.w3.org/2000/svg" width="26" height="30" viewBox="0 0 52.453 60">
  <defs>
    <style>
      .cls-1 {
        fill: #767c8c;
      }
    </style>
  </defs>
  <path id="icons8-dns" class="cls-1" d="M29.676,2A29.988,29.988,0,0,0,3.736,17h7.324A24.076,24.076,0,0,1,21.385,9.506,39.76,39.76,0,0,0,19.117,17h6.17c1.437-5.931,3.45-9,4.389-9s2.952,3.069,4.389,9h6.17a39.982,39.982,0,0,0-2.268-7.494A24.094,24.094,0,0,1,48.291,17h7.324A29.988,29.988,0,0,0,29.676,2ZM3.162,23V41h6.4a8.364,8.364,0,0,0,4.207-1.084,7.351,7.351,0,0,0,2.883-3.029,9.494,9.494,0,0,0,1.025-4.465V31.59a9.465,9.465,0,0,0-1.043-4.482,7.412,7.412,0,0,0-2.895-3.041A8.312,8.312,0,0,0,9.525,23Zm19.629,0V41H26.5V29.158L33.719,41h3.709V23h-3.7V34.865L26.5,23Zm25.887,0a8.659,8.659,0,0,0-3.363.627,5.226,5.226,0,0,0-2.3,1.74,4.219,4.219,0,0,0-.8,2.531q0,2.732,2.988,4.342a18.454,18.454,0,0,0,2.971,1.2,9.394,9.394,0,0,1,2.6,1.154,1.85,1.85,0,0,1,.727,1.57,1.709,1.709,0,0,1-.727,1.465,3.383,3.383,0,0,1-2.01.521c-2.31,0-3.463-.974-3.463-2.906H41.676a5.184,5.184,0,0,0,.873,2.982,5.827,5.827,0,0,0,2.531,2.033A8.91,8.91,0,0,0,48.76,41a7.5,7.5,0,0,0,4.629-1.295,4.214,4.214,0,0,0,1.723-3.568,4.57,4.57,0,0,0-1.406-3.416,10.955,10.955,0,0,0-4.488-2.3,9.729,9.729,0,0,1-2.531-1.084,1.687,1.687,0,0,1-.861-1.43,1.774,1.774,0,0,1,.738-1.477,3.333,3.333,0,0,1,2.057-.557,3.111,3.111,0,0,1,2.127.668,2.372,2.372,0,0,1,.762,1.875h3.609A5.043,5.043,0,0,0,54.3,25.6a5.311,5.311,0,0,0-2.279-1.922A7.879,7.879,0,0,0,48.678,23ZM7.029,26.006H9.256a3.964,3.964,0,0,1,3.3,1.412,6.562,6.562,0,0,1,1.131,4.16v.949a6.458,6.458,0,0,1-1.166,4.066,3.982,3.982,0,0,1-3.3,1.424H7.029ZM3.736,47a29.929,29.929,0,0,0,51.879,0H48.291a24.076,24.076,0,0,1-10.324,7.494A39.99,39.99,0,0,0,40.229,47h-6.17c-1.437,5.931-3.45,9-4.389,9s-2.946-3.069-4.383-9h-6.17a39.982,39.982,0,0,0,2.268,7.494A24.094,24.094,0,0,1,11.061,47Z" transform="translate(-3.162 -2)"/>
</svg>
