<svg width="24" height="24" xmlns="http://www.w3.org/2000/svg">

 <g>
  <title>background</title>
  <rect fill="none" id="canvas_background" height="402" width="582" y="-1" x="-1"/>
 </g>
 <g>
  <title>Layer 1</title>
  <path fill="#ffffff" id="svg_1" fill-rule="evenodd" d="m21.652,3.211c-0.293001,-0.295 -0.77,-0.295 -1.061001,0l-11.181,11.129c-0.293,0.297 -0.771,0.297 -1.062,0l-4.899,-4.989c-0.145,-0.148 -0.335,-0.221 -0.526,-0.222c-0.193,-0.000999 -0.389,0.072001 -0.536,0.222l-2.165,1.946c-0.144,0.148 -0.222,0.333 -0.222,0.526c0,0.194 0.078,0.397 0.223,0.544l4.94,5.184001c0.292,0.296 0.771,0.775999 1.062,1.07l2.124,2.140999c0.292,0.293001 0.769,0.293001 1.062,0l14.366,-14.339999c0.292999,-0.294 0.292999,-0.777 0,-1.071l-2.125,-2.14z" clip-rule="evenodd"/>
 </g>
</svg>