<svg xmlns="http://www.w3.org/2000/svg" width="30" height="30" viewBox="0 0 60 60">
  <path id="icons8-chrome" style="fill: #767C8C" d="M32,2a30,30,0,0,0-2.9,59.854c.954.092,1.922.146,2.9.146A30,30,0,0,0,32,2Zm0,6A24,24,0,0,1,52.754,20H40.918a14.822,14.822,0,0,0-22.037,4.881l-6.568-6.568A23.979,23.979,0,0,1,32,8ZM11.111,20.223,17,32A15,15,0,0,0,32,47a14.73,14.73,0,0,0,2.068-.211l-3.053,9.164a23.945,23.945,0,0,1-19.9-35.73Zm42.715,1.846A23.932,23.932,0,0,1,33.037,55.947L41,44h-.082a14.749,14.749,0,0,0,4.506-18.568ZM32,23a9,9,0,1,1-9,9A9,9,0,0,1,32,23Z" transform="translate(-2 -2)"/>
</svg>
