<svg xmlns="http://www.w3.org/2000/svg" width="30" height="30" viewBox="0 0 60 59.853">
  <defs>
    <style>
      .cls-1 {
        fill: #767c8c;
      }
    </style>
  </defs>
  <path id="icons8-in_progress" class="cls-1" d="M28.967,2.051A29.935,29.935,0,0,0,12.953,8.7l4.288,4.288a23.925,23.925,0,0,1,11.725-4.87Zm6.015,0V8.125a24.039,24.039,0,0,1,0,47.705V61.9a30.077,30.077,0,0,0,0-59.853ZM8.7,12.953a29.912,29.912,0,0,0-6.65,16.013H8.119a23.925,23.925,0,0,1,4.87-11.725Zm36.186,7.872L28.967,36.744l-6.9-6.9L17.817,34.1,28.967,45.25,49.139,25.078ZM2.051,34.976A29.921,29.921,0,0,0,8.7,51L12.995,46.7a23.925,23.925,0,0,1-4.87-11.725ZM17.242,50.96l-4.288,4.288A29.917,29.917,0,0,0,28.961,61.9V55.83A23.925,23.925,0,0,1,17.242,50.96Z" transform="translate(-2.051 -2.051)"/>
</svg>
