<svg xmlns="http://www.w3.org/2000/svg" width="27" height="23" viewBox="0 0 54.21 45.175">
  <path id="icons8-cloud_connection" style="fill: #1374FF" d="M27.105,2a15.87,15.87,0,0,0-12.97,6.785,14.683,14.683,0,0,0,.547,29.355H24.846v4.518H4.518v4.518H49.693V42.658H29.364V38.14H41.787A12.423,12.423,0,0,0,42.25,13.3,15.715,15.715,0,0,0,27.105,2Zm0,4.518a11.228,11.228,0,0,1,11.139,9.52l.34,2.171,2.484-.326a5.385,5.385,0,0,1,.719-.071,7.906,7.906,0,0,1,0,15.811H14.682a10.164,10.164,0,0,1,0-20.329l1.941.106.7-1.2A11.325,11.325,0,0,1,27.105,6.518Z" transform="translate(0 -2)"/>
</svg>
