<svg xmlns="http://www.w3.org/2000/svg" width="30" height="30" viewBox="0 0 60 60">
  <path id="icons8-coins" style="fill: #767C8C" d="M26,2A24,24,0,1,0,50,26,24.028,24.028,0,0,0,26,2Zm-.861,6.041v3.041c-1.017.129-6.709,1.2-6.709,8.074,0,10.023,10.377,7.053,10.377,13.74,0,3.348-2.166,3.428-2.607,3.428-.4,0-3.041.214-3.041-4.91H17.486c0,8.676,6.294,9.369,7.23,9.5v3.023a17.979,17.979,0,0,1,.422-35.895Zm3.023.105a17.988,17.988,0,0,1-.439,35.766v-3c1.014-.126,6.75-1.073,6.75-8.057,0-9.615-10.374-7.775-10.377-13.676,0-3.381,1.86-3.486,2.262-3.486.735,0,2.484.651,2.484,4.77h5.672c0-7.881-5.389-9.11-6.352-9.293ZM55.678,21.822A29.994,29.994,0,0,1,56,26a29.862,29.862,0,0,1-.791,6.738A17.986,17.986,0,0,1,32.738,55.209,29.862,29.862,0,0,1,26,56a29.994,29.994,0,0,1-4.178-.322A23.961,23.961,0,0,0,55.678,21.822Z" transform="translate(-2 -2)"/>
</svg>
