<svg xmlns="http://www.w3.org/2000/svg" width="28" height="30" viewBox="0 0 56.889 60">
  <path id="icons8-filled_topic" style="fill: #767C8C" d="M30.444,2C14.938,2,2,13.3,2,27.6S14.938,53.2,30.444,53.2c.985,0,1.892-.2,2.844-.289V62l4.383-2.811c6.15-3.947,19.467-14.194,21.056-28.9a23.478,23.478,0,0,0,.161-2.689C58.889,13.3,45.951,2,30.444,2Zm0,5.689C43.218,7.689,53.2,16.763,53.2,27.6a17.809,17.809,0,0,1-.122,2.056v.011l-.006.011c-.983,9.1-8.27,16.254-14.094,20.917v-4.3l-3.406.689a25.875,25.875,0,0,1-5.128.528c-12.773,0-22.756-9.074-22.756-19.911S17.671,7.689,30.444,7.689Z" transform="translate(-2 -2)"/>
</svg>
