<svg xmlns="http://www.w3.org/2000/svg" width="24" height="16" viewBox="0 0 24 16">
  <defs>
    <style>
      .cls-1 {
        fill: #db464c;
      }
    </style>
  </defs>
  <path id="icons8-sad_cloud" class="cls-1" d="M12,4A7.026,7.026,0,0,0,6.258,7,6.5,6.5,0,0,0,6.5,20h12a5.5,5.5,0,0,0,.205-11A6.957,6.957,0,0,0,12,4Zm0,2a4.971,4.971,0,0,1,4.932,4.215l.15.961,1.1-.145A2.384,2.384,0,0,1,18.5,11a3.5,3.5,0,0,1,0,7H6.5a4.5,4.5,0,0,1,0-9l.859.047.309-.533A5.014,5.014,0,0,1,12,6Zm-2,4a1,1,0,1,0,1,1A1,1,0,0,0,10,10Zm4,0a1,1,0,1,0,1,1A1,1,0,0,0,14,10Zm-2,3a6.021,6.021,0,0,0-2.7.605,4.445,4.445,0,0,0-1.01.688l1.414,1.414a1.807,1.807,0,0,1,.49-.312A3.964,3.964,0,0,1,12,15a3.964,3.964,0,0,1,1.8.395,1.807,1.807,0,0,1,.49.313l1.414-1.414a4.445,4.445,0,0,0-1.01-.687A6.021,6.021,0,0,0,12,13Z" transform="translate(0 -4)"/>
</svg>
